<svg width="30" height="30" viewBox="0 0 30 30" fill="none" xmlns="http://www.w3.org/2000/svg">
<path d="M14.6874 7.49995C14.688 7.62312 14.664 7.74517 14.6167 7.85894C14.5695 7.9727 14.5 8.07589 14.4124 8.16245L7.57491 14.9999L14.4124 21.8374C14.578 22.0152 14.6682 22.2502 14.6639 22.4931C14.6596 22.736 14.5612 22.9677 14.3894 23.1395C14.2177 23.3112 13.9859 23.4096 13.7431 23.4139C13.5002 23.4182 13.2651 23.328 13.0874 23.1624L5.58741 15.6624C5.41184 15.4867 5.31323 15.2484 5.31323 14.9999C5.31323 14.7515 5.41184 14.5132 5.58741 14.3374L13.0874 6.83745C13.2632 6.66188 13.5015 6.56327 13.7499 6.56327C13.9983 6.56327 14.2366 6.66188 14.4124 6.83745C14.5 6.924 14.5695 7.02719 14.6167 7.14096C14.664 7.25472 14.688 7.37677 14.6874 7.49995Z" fill="#4F4F4F"/>
<path d="M24.6875 15C24.6843 15.2476 24.5845 15.4842 24.4093 15.6593C24.2342 15.8345 23.9976 15.9343 23.75 15.9375L6.25 15.9375C6.00136 15.9375 5.7629 15.8387 5.58709 15.6629C5.41127 15.4871 5.3125 15.2486 5.3125 15C5.3125 14.7514 5.41127 14.5129 5.58709 14.3371C5.7629 14.1613 6.00136 14.0625 6.25 14.0625L23.75 14.0625C23.9976 14.0657 24.2342 14.1655 24.4093 14.3407C24.5845 14.5158 24.6843 14.7524 24.6875 15Z" fill="#4F4F4F"/>
</svg>
