<svg width="118" height="36" viewBox="0 0 118 36" fill="none" xmlns="http://www.w3.org/2000/svg">
<g filter="url(#filter0_d_22_950)">
<rect x="6" y="1" width="108" height="27" rx="5" fill="#EDF7FC"/>
</g>
<path d="M24.6864 17.9785L24.7596 19.7437C23.9296 19.9634 23.1703 20.0732 22.4818 20.0732C21.7006 20.0732 20.9779 19.9707 20.3138 19.7656C19.6498 19.5605 19.0638 19.248 18.556 18.8281C18.0531 18.4033 17.6649 17.8784 17.3915 17.2534C17.1229 16.6284 16.9887 15.9082 16.9887 15.0928C16.9887 14.2773 17.1107 13.5474 17.3549 12.9028C17.599 12.2583 17.953 11.7139 18.4169 11.2695C18.8856 10.8203 19.4471 10.4834 20.1014 10.2588C20.7557 10.0342 21.4882 9.92188 22.2987 9.92188C23.0214 9.92188 23.827 10.0659 24.7157 10.354L24.5546 12.0679C23.8954 11.7065 23.1801 11.5259 22.4086 11.5259C21.7543 11.5259 21.1781 11.6675 20.6801 11.9507C20.182 12.229 19.7987 12.6196 19.5302 13.1226C19.2665 13.6255 19.1346 14.2041 19.1346 14.8584C19.1346 15.5371 19.2738 16.1475 19.5521 16.6895C19.8353 17.2314 20.2357 17.6514 20.7533 17.9492C21.2709 18.2471 21.8763 18.396 22.5697 18.396C23.2289 18.396 23.9345 18.2568 24.6864 17.9785ZM32.5695 20H30.6506V16.3965C30.6506 15.6836 30.5725 15.1147 30.4162 14.6899C30.2648 14.2603 29.9035 14.0454 29.3322 14.0454C28.717 14.0454 28.2849 14.2993 28.0358 14.8071C27.7868 15.3101 27.6623 15.9009 27.6623 16.5796V16.9531V20H25.7434V9.19678H27.6623V13.6279C27.9406 13.2275 28.2751 12.9297 28.6657 12.7344C29.0563 12.5391 29.5031 12.4414 30.0061 12.4414C30.5285 12.4414 30.9582 12.5269 31.2951 12.6978C31.6369 12.8638 31.8981 13.0908 32.0788 13.3789C32.2644 13.667 32.3913 14.0039 32.4597 14.3896C32.5329 14.7705 32.5695 15.2197 32.5695 15.7373V20ZM40.3355 20H38.6216L38.5923 18.8867C38.3628 19.2822 38.0406 19.5874 37.6255 19.8022C37.2154 20.0122 36.7686 20.1172 36.2852 20.1172C35.792 20.1172 35.3501 20.0317 34.9595 19.8608C34.5738 19.6899 34.2686 19.4312 34.044 19.0845C33.8194 18.7329 33.7071 18.3081 33.7071 17.8101C33.7071 16.8823 34.0708 16.2476 34.7984 15.9058C35.5259 15.564 36.4121 15.3931 37.4571 15.3931C37.6084 15.3931 37.7061 15.3955 37.75 15.4004C37.794 15.4004 37.8916 15.4053 38.043 15.415C38.1944 15.4199 38.3482 15.4272 38.5044 15.437C38.5044 14.8853 38.3701 14.4751 38.1016 14.2065C37.833 13.938 37.418 13.8037 36.8565 13.8037C36.0069 13.8037 35.2403 14.0747 34.5567 14.6167L34.4981 12.9468C35.294 12.6099 36.1558 12.4414 37.0835 12.4414C37.4302 12.4414 37.7744 12.4756 38.1162 12.5439C38.458 12.6123 38.773 12.7271 39.0611 12.8882C39.354 13.0444 39.5957 13.2544 39.7862 13.5181C39.9815 13.7817 40.1084 14.0845 40.167 14.4263C40.2305 14.7632 40.2622 15.166 40.2622 15.6348C40.2622 16.1182 40.2622 16.604 40.2622 17.0923C40.2671 17.5806 40.272 18.0273 40.2769 18.4326C40.2866 18.833 40.3062 19.3555 40.3355 20ZM38.5337 16.6235C38.4849 16.6138 38.4092 16.6089 38.3067 16.6089H38.0723C37.6524 16.6089 37.2666 16.6333 36.9151 16.6821C36.5684 16.7261 36.2632 16.8433 35.9995 17.0337C35.7407 17.2192 35.6114 17.4927 35.6114 17.854C35.6114 18.147 35.7261 18.3813 35.9556 18.5571C36.19 18.728 36.461 18.8135 36.7686 18.8135C37.3496 18.8135 37.7891 18.5986 38.0869 18.1689C38.3848 17.7393 38.5337 17.2241 38.5337 16.6235ZM46.0433 18.4106L46.1092 19.9121C45.6209 20.0098 45.1888 20.0586 44.8128 20.0586C44.183 20.0586 43.6849 19.9438 43.3187 19.7144C42.9525 19.48 42.6961 19.1504 42.5497 18.7256C42.4032 18.2959 42.3299 17.771 42.3299 17.1509V14.0454H40.931V12.6172H42.3592V11.1084L44.2782 10.4785V12.6172H45.9701V14.0454H44.2782V16.748C44.2782 17.3242 44.3392 17.7637 44.4613 18.0664C44.5882 18.3643 44.8958 18.5132 45.3841 18.5132C45.5648 18.5132 45.7845 18.479 46.0433 18.4106ZM52.7788 12.5732L52.8227 13.7598C53.4184 12.8906 54.2534 12.4561 55.3276 12.4561C56.3237 12.4561 56.9951 12.7515 57.3418 13.3423C57.6885 13.9282 57.8618 14.7534 57.8618 15.8179V20H55.9429V16.2646C55.9429 15.6055 55.8574 15.0708 55.6865 14.6606C55.5205 14.2505 55.1567 14.0454 54.5952 14.0454C53.9946 14.0454 53.5723 14.2871 53.3281 14.7705C53.084 15.249 52.9619 15.8179 52.9619 16.4771V20H51.0356V15.2759C51.0356 14.2261 51.0112 13.3252 50.9624 12.5732H52.7788ZM66.6898 16.3525C66.6898 16.9238 66.597 17.4487 66.4114 17.9272C66.2259 18.4009 65.9622 18.8062 65.6204 19.1431C65.2835 19.4751 64.8782 19.7339 64.4046 19.9194C63.931 20.105 63.4036 20.1978 62.8226 20.1978C62.056 20.1978 61.3821 20.0317 60.8011 19.6997C60.22 19.3677 59.7708 18.8989 59.4534 18.2935C59.1409 17.688 58.9847 17.0068 58.9847 16.25C58.9847 15.4932 59.1458 14.8218 59.4681 14.2358C59.7903 13.6499 60.242 13.1958 60.8231 12.8735C61.409 12.5464 62.0804 12.3828 62.8372 12.3828C63.4231 12.3828 63.9529 12.4805 64.4266 12.6758C64.9051 12.8711 65.3128 13.1494 65.6497 13.5107C65.9866 13.8672 66.243 14.2871 66.4188 14.7705C66.5994 15.2539 66.6898 15.7812 66.6898 16.3525ZM64.6976 16.3086C64.6976 15.9082 64.6316 15.5151 64.4998 15.1294C64.3729 14.7437 64.1678 14.4263 63.8846 14.1772C63.6014 13.9282 63.2523 13.8037 62.8372 13.8037C62.4417 13.8037 62.0999 13.9258 61.8118 14.1699C61.5286 14.4141 61.3187 14.7266 61.1819 15.1074C61.0452 15.4834 60.9769 15.8643 60.9769 16.25C60.9769 16.665 61.0403 17.0654 61.1673 17.4512C61.2991 17.8369 61.5066 18.1543 61.7898 18.4033C62.0731 18.6475 62.4319 18.7695 62.8665 18.7695C63.1741 18.7695 63.4451 18.6963 63.6795 18.5498C63.9139 18.3984 64.1043 18.208 64.2508 17.9785C64.3973 17.7441 64.5071 17.4829 64.5804 17.1948C64.6585 16.9019 64.6976 16.6064 64.6976 16.3086ZM79.59 12.5732L77.2902 20H75.0563L74.1261 17.1216C73.9161 16.438 73.7574 15.8911 73.65 15.481C73.5426 15.0659 73.4571 14.6069 73.3937 14.104C73.3351 14.436 73.274 14.7388 73.2106 15.0122C73.1471 15.2808 73.069 15.5933 72.9762 15.9497C72.8834 16.3062 72.798 16.6406 72.7198 16.9531L71.7897 20H69.5778L67.0582 12.5732H69.087L69.9586 15.2466C70.359 16.4868 70.6276 17.5708 70.7643 18.4985C70.8424 17.9712 70.9327 17.4829 71.0353 17.0337C71.1427 16.5845 71.2721 16.0986 71.4235 15.5762L72.3097 12.5732H74.5289L75.5836 15.9204C75.8815 16.8286 76.0865 17.6782 76.1988 18.4692C76.3111 17.6489 76.4991 16.7896 76.7628 15.8911L77.7296 12.5732H79.59Z" fill="#367DA7"/>
<circle cx="96" cy="16" r="9.5" transform="rotate(90 96 16)" fill="white" stroke="#367DA7"/>
<path d="M96.0542 20.0886C95.974 20.0082 95.9289 19.8993 95.9289 19.7857C95.9289 19.6721 95.974 19.5632 96.0542 19.4829L98.8942 16.6429H90.6428C90.5291 16.6429 90.4201 16.5977 90.3397 16.5173C90.2594 16.437 90.2142 16.3279 90.2142 16.2143C90.2142 16.1006 90.2594 15.9916 90.3397 15.9112C90.4201 15.8309 90.5291 15.7857 90.6428 15.7857H98.8942L96.0542 12.9457C95.9978 12.8933 95.9566 12.8267 95.9348 12.7528C95.9131 12.679 95.9117 12.6006 95.9308 12.526C95.9499 12.4515 95.9887 12.3834 96.0432 12.329C96.0977 12.2747 96.1659 12.236 96.2405 12.2171C96.315 12.198 96.3933 12.1994 96.4671 12.221C96.5409 12.2426 96.6075 12.2837 96.6599 12.34L100.231 15.9114C100.312 15.9918 100.357 16.1007 100.357 16.2143C100.357 16.3279 100.312 16.4368 100.231 16.5171L96.6599 20.0886C96.5796 20.1688 96.4706 20.2139 96.3571 20.2139C96.2435 20.2139 96.1346 20.1688 96.0542 20.0886Z" fill="#367DA7"/>
<defs>
<filter id="filter0_d_22_950" x="2" y="1" width="116" height="35" filterUnits="userSpaceOnUse" color-interpolation-filters="sRGB">
<feFlood flood-opacity="0" result="BackgroundImageFix"/>
<feColorMatrix in="SourceAlpha" type="matrix" values="0 0 0 0 0 0 0 0 0 0 0 0 0 0 0 0 0 0 127 0" result="hardAlpha"/>
<feOffset dy="4"/>
<feGaussianBlur stdDeviation="2"/>
<feComposite in2="hardAlpha" operator="out"/>
<feColorMatrix type="matrix" values="0 0 0 0 0 0 0 0 0 0 0 0 0 0 0 0 0 0 0.1 0"/>
<feBlend mode="normal" in2="BackgroundImageFix" result="effect1_dropShadow_22_950"/>
<feBlend mode="normal" in="SourceGraphic" in2="effect1_dropShadow_22_950" result="shape"/>
</filter>
</defs>
</svg>
