<svg width="157" height="35" viewBox="0 0 157 35" fill="none" xmlns="http://www.w3.org/2000/svg">
<g filter="url(#filter0_d_22_941)">
<rect x="4" width="149" height="27" rx="5" fill="#EDF7FC"/>
</g>
<path d="M27.1082 19H24.5007L21.2634 14.8765C21.2195 14.8228 21.0632 14.603 20.7947 14.2173C20.824 14.5151 20.8386 14.8105 20.8386 15.1035V19H18.8172V8.99512H20.8386V12.5474C20.8386 12.8208 20.824 13.0869 20.7947 13.3457C21.0828 12.9551 21.2586 12.7256 21.322 12.6572L24.4422 8.99512H26.8884L22.7942 13.6167L27.1082 19ZM33.878 17.0225L33.9073 18.6851C33.1212 19.0269 32.2716 19.1978 31.3585 19.1978C30.7481 19.1978 30.2037 19.1123 29.7252 18.9414C29.2515 18.7656 28.8463 18.5093 28.5094 18.1724C28.1724 17.8306 27.9161 17.4204 27.7403 16.9419C27.5645 16.4585 27.4766 15.9092 27.4766 15.2939C27.4766 14.7275 27.5572 14.2075 27.7183 13.7339C27.8844 13.2554 28.1212 12.8428 28.4288 12.4961C28.7364 12.1445 29.1148 11.8711 29.564 11.6758C30.0181 11.4805 30.5308 11.3828 31.1021 11.3828C31.6588 11.3828 32.1495 11.4829 32.5743 11.6831C32.9991 11.8833 33.3433 12.1592 33.607 12.5107C33.8756 12.8623 34.0758 13.27 34.2076 13.7339C34.3394 14.1929 34.4054 14.6982 34.4054 15.25C34.4054 15.3477 34.4029 15.4209 34.398 15.4697C34.3931 15.5186 34.3883 15.5796 34.3834 15.6528C34.3785 15.7261 34.3712 15.8115 34.3614 15.9092H29.3663C29.4151 16.4951 29.6422 16.9517 30.0474 17.2788C30.4576 17.606 30.9654 17.7695 31.5709 17.7695C32.2545 17.7695 33.0235 17.5205 33.878 17.0225ZM32.5743 14.5762C32.5645 14.2441 32.5035 13.939 32.3912 13.6606C32.2838 13.3823 32.1153 13.1577 31.8858 12.9868C31.6612 12.8159 31.3805 12.7305 31.0435 12.7305C30.6969 12.7305 30.399 12.8159 30.15 12.9868C29.9058 13.1528 29.7154 13.375 29.5787 13.6533C29.4469 13.9316 29.3663 14.2393 29.337 14.5762H32.5743ZM41.8124 19H40.0985L40.0692 17.8867C39.8397 18.2822 39.5175 18.5874 39.1024 18.8022C38.6923 19.0122 38.2455 19.1172 37.7621 19.1172C37.2689 19.1172 36.8271 19.0317 36.4364 18.8608C36.0507 18.6899 35.7455 18.4312 35.5209 18.0845C35.2963 17.7329 35.184 17.3081 35.184 16.8101C35.184 15.8823 35.5478 15.2476 36.2753 14.9058C37.0028 14.564 37.8891 14.3931 38.934 14.3931C39.0854 14.3931 39.183 14.3955 39.227 14.4004C39.2709 14.4004 39.3686 14.4053 39.5199 14.415C39.6713 14.4199 39.8251 14.4272 39.9813 14.437C39.9813 13.8853 39.8471 13.4751 39.5785 13.2065C39.31 12.938 38.8949 12.8037 38.3334 12.8037C37.4838 12.8037 36.7172 13.0747 36.0336 13.6167L35.975 11.9468C36.7709 11.6099 37.6327 11.4414 38.5605 11.4414C38.9071 11.4414 39.2514 11.4756 39.5932 11.5439C39.935 11.6123 40.2499 11.7271 40.538 11.8882C40.831 12.0444 41.0727 12.2544 41.2631 12.5181C41.4584 12.7817 41.5854 13.0845 41.6439 13.4263C41.7074 13.7632 41.7392 14.166 41.7392 14.6348C41.7392 15.1182 41.7392 15.604 41.7392 16.0923C41.744 16.5806 41.7489 17.0273 41.7538 17.4326C41.7636 17.833 41.7831 18.3555 41.8124 19ZM40.0106 15.6235C39.9618 15.6138 39.8861 15.6089 39.7836 15.6089H39.5492C39.1293 15.6089 38.7436 15.6333 38.392 15.6821C38.0453 15.7261 37.7401 15.8433 37.4765 16.0337C37.2177 16.2192 37.0883 16.4927 37.0883 16.854C37.0883 17.147 37.203 17.3813 37.4325 17.5571C37.6669 17.728 37.9379 17.8135 38.2455 17.8135C38.8266 17.8135 39.266 17.5986 39.5639 17.1689C39.8617 16.7393 40.0106 16.2241 40.0106 15.6235ZM45.1838 11.5732L45.2278 12.7598C45.8235 11.8906 46.6584 11.4561 47.7326 11.4561C48.7287 11.4561 49.4001 11.7515 49.7468 12.3423C50.0935 12.9282 50.2668 13.7534 50.2668 14.8179V19H48.3479V15.2646C48.3479 14.6055 48.2624 14.0708 48.0915 13.6606C47.9255 13.2505 47.5617 13.0454 47.0002 13.0454C46.3996 13.0454 45.9773 13.2871 45.7331 13.7705C45.489 14.249 45.3669 14.8179 45.3669 15.4771V19H43.4406V14.2759C43.4406 13.2261 43.4162 12.3252 43.3674 11.5732H45.1838ZM58.4942 11.5732V16.1069C58.5039 16.3169 58.5137 16.6416 58.5235 17.0811C58.5381 17.5205 58.5503 17.8721 58.5601 18.1357C58.5699 18.3994 58.5845 18.6875 58.604 19H56.7876L56.729 17.8574C56.5581 18.126 56.3506 18.353 56.1065 18.5386C55.8672 18.7241 55.5962 18.8682 55.2935 18.9707C54.9908 19.0684 54.688 19.1172 54.3853 19.1172C53.6968 19.1172 53.1597 18.9756 52.774 18.6924C52.3882 18.4092 52.1221 18.021 51.9756 17.5278C51.834 17.0347 51.7632 16.4463 51.7632 15.7627V11.5732H53.6822V15.1475C53.6822 15.6113 53.7041 16.0044 53.7481 16.3267C53.7969 16.644 53.9214 16.9224 54.1216 17.1616C54.3218 17.396 54.6246 17.5132 55.0298 17.5132C55.6109 17.5132 56.0137 17.269 56.2383 16.7808C56.4629 16.2876 56.5752 15.7114 56.5752 15.0522V11.5732H58.4942ZM66.6263 11.6025L67.93 11.6172L67.3734 14.5029C67.3636 14.5566 67.349 14.6348 67.3295 14.7373C67.3148 14.835 67.3002 14.9253 67.2855 15.0083C67.2855 15.1792 67.305 15.3281 67.3441 15.4551C67.3881 15.5771 67.4833 15.6382 67.6297 15.6382C67.8934 15.6382 68.1205 15.4941 68.3109 15.2061C68.5013 14.918 68.6454 14.5884 68.743 14.2173C68.8407 13.8462 68.8895 13.541 68.8895 13.3018C68.8895 12.7646 68.7967 12.2886 68.6112 11.8735C68.4256 11.4536 68.1693 11.1021 67.8422 10.8188C67.515 10.5356 67.1341 10.3232 66.6996 10.1816C66.265 10.04 65.784 9.96924 65.2567 9.96924C64.5585 9.96924 63.8968 10.1523 63.2718 10.5186C62.6517 10.8799 62.1561 11.3706 61.785 11.9907C61.4188 12.6108 61.2357 13.2773 61.2357 13.9902C61.2357 14.7568 61.392 15.4478 61.7045 16.063C62.0218 16.6782 62.4711 17.1616 63.0521 17.5132C63.6381 17.8647 64.3192 18.0405 65.0956 18.0405C66.1796 18.0405 67.183 17.8843 68.1058 17.5718L68.4061 18.7583C67.4833 19.0708 66.3797 19.2271 65.0956 19.2271C64.3729 19.2271 63.6942 19.0952 63.0594 18.8315C62.4296 18.563 61.8827 18.1895 61.4188 17.7109C60.9549 17.2324 60.5961 16.6758 60.3422 16.041C60.0882 15.4014 59.9613 14.7178 59.9613 13.9902C59.9613 13.2969 60.098 12.6353 60.3714 12.0054C60.6498 11.3755 61.0355 10.8164 61.5287 10.3281C62.0218 9.83984 62.5834 9.46143 63.2132 9.19287C63.848 8.91943 64.5145 8.78271 65.2128 8.78271C65.9061 8.78271 66.5458 8.89258 67.1317 9.1123C67.7225 9.32715 68.2328 9.63965 68.6625 10.0498C69.097 10.4551 69.4364 10.9458 69.6805 11.522C69.9247 12.0981 70.0467 12.7305 70.0467 13.4189C70.0467 13.8779 69.9418 14.3687 69.7318 14.8911C69.5267 15.4087 69.2338 15.8433 68.8529 16.1948C68.4769 16.5464 68.0497 16.7222 67.5712 16.7222C67.3026 16.7222 67.0585 16.6465 66.8387 16.4951C66.619 16.3438 66.4725 16.1436 66.3993 15.8945C66.1991 16.1875 65.9232 16.4194 65.5716 16.5903C65.225 16.7563 64.871 16.8394 64.5096 16.8394C64.1288 16.8394 63.7797 16.7368 63.4623 16.5317C63.1449 16.3267 62.891 16.0532 62.7006 15.7114C62.515 15.3696 62.4125 15.0107 62.3929 14.6348C62.3929 14.1123 62.5004 13.6069 62.7152 13.1187C62.9349 12.6255 63.2523 12.2251 63.6673 11.9175C64.0824 11.6099 64.5585 11.4561 65.0956 11.4561C65.2762 11.4561 65.4545 11.4854 65.6302 11.5439C65.8109 11.5977 65.9769 11.6807 66.1283 11.793C66.2797 11.9004 66.4042 12.0322 66.5018 12.1885L66.6263 11.6025ZM66.1722 13.8364C66.1576 13.563 66.0624 13.3311 65.8866 13.1406C65.7157 12.9453 65.4911 12.8477 65.2128 12.8477C64.954 12.8477 64.7245 12.9282 64.5243 13.0894C64.3241 13.2456 64.1678 13.4482 64.0555 13.6973C63.9481 13.9463 63.8944 14.1929 63.8944 14.437C63.8944 14.6274 63.9335 14.8057 64.0116 14.9717C64.0946 15.1377 64.2118 15.272 64.3631 15.3745C64.5194 15.4722 64.6927 15.521 64.8832 15.521C65.1517 15.521 65.3837 15.4355 65.579 15.2646C65.7743 15.0938 65.9208 14.874 66.0184 14.6055C66.121 14.3369 66.1722 14.0806 66.1722 13.8364ZM76.4211 11.5879H78.2521V18.0991C78.2521 19.4419 77.9421 20.4551 77.322 21.1387C76.7067 21.8223 75.7277 22.1641 74.3849 22.1641C73.5158 22.1641 72.6491 21.9883 71.7848 21.6367L71.9387 19.9741C72.3342 20.1694 72.715 20.3208 73.0812 20.4282C73.4523 20.5356 73.8259 20.5894 74.2018 20.5894C74.6218 20.5894 75.0148 20.499 75.381 20.3184C75.7472 20.1377 76.0134 19.874 76.1794 19.5273C76.2917 19.293 76.36 19.0342 76.3845 18.751C76.4138 18.4678 76.4357 18.0552 76.4504 17.5132C76.2062 17.9673 75.8644 18.3286 75.425 18.5972C74.9855 18.8657 74.507 19 73.9894 19C73.3205 19 72.759 18.8218 72.3049 18.4653C71.8556 18.1089 71.5261 17.6426 71.3161 17.0664C71.111 16.4902 71.0085 15.875 71.0085 15.2207C71.0085 14.5518 71.1135 13.9316 71.3234 13.3604C71.5383 12.7842 71.8727 12.3203 72.3268 11.9688C72.7809 11.6172 73.3498 11.4414 74.0334 11.4414C74.5705 11.4414 75.0417 11.5513 75.447 11.771C75.8522 11.9907 76.1672 12.3252 76.3918 12.7744L76.4211 11.5879ZM76.3478 15.2061C76.3478 14.957 76.3112 14.6982 76.238 14.4297C76.1647 14.1611 76.0573 13.9268 75.9157 13.7266C75.779 13.5215 75.5983 13.3555 75.3737 13.2285C75.1491 13.0967 74.9025 13.0308 74.634 13.0308C74.0871 13.0308 73.6769 13.2456 73.4035 13.6753C73.1349 14.105 73.0007 14.6104 73.0007 15.1914C73.0007 15.7676 73.1374 16.2876 73.4108 16.7515C73.6891 17.2104 74.0969 17.4399 74.634 17.4399C75.0148 17.4399 75.3322 17.3301 75.5861 17.1104C75.84 16.8906 76.0305 16.6074 76.1574 16.2607C76.2844 15.9141 76.3478 15.5625 76.3478 15.2061ZM81.6382 11.5732L81.6821 12.7012C81.9214 12.3105 82.2437 12.0054 82.6489 11.7856C83.0591 11.5659 83.501 11.4561 83.9746 11.4561C84.4922 11.4561 84.9194 11.5635 85.2563 11.7783C85.5981 11.9883 85.8716 12.3203 86.0767 12.7744C86.3257 12.3496 86.6553 12.0249 87.0654 11.8003C87.4805 11.5708 87.937 11.4561 88.4351 11.4561C89.3579 11.4561 89.9805 11.749 90.3027 12.335C90.625 12.916 90.7861 13.7021 90.7861 14.6934V19H88.8672V15.3965V15.1035C88.8672 14.5029 88.7964 14.0098 88.6548 13.624C88.5181 13.2383 88.2153 13.0454 87.7466 13.0454C86.7749 13.0454 86.2891 13.8853 86.2891 15.5649V19H84.3701V15.1914V14.6641C84.3701 14.2344 84.2871 13.8584 84.1211 13.5361C83.9551 13.209 83.667 13.0454 83.2568 13.0454C82.7246 13.0454 82.3462 13.2725 82.1216 13.7266C81.897 14.1758 81.7847 14.6934 81.7847 15.2793V19H79.8657V13.3896C79.8657 12.7109 79.8462 12.1055 79.8071 11.5732H81.6382ZM98.5448 19H96.8309L96.8016 17.8867C96.5721 18.2822 96.2498 18.5874 95.8348 18.8022C95.4246 19.0122 94.9779 19.1172 94.4945 19.1172C94.0013 19.1172 93.5594 19.0317 93.1688 18.8608C92.783 18.6899 92.4779 18.4312 92.2533 18.0845C92.0286 17.7329 91.9163 17.3081 91.9163 16.8101C91.9163 15.8823 92.2801 15.2476 93.0076 14.9058C93.7352 14.564 94.6214 14.3931 95.6663 14.3931C95.8177 14.3931 95.9154 14.3955 95.9593 14.4004C96.0033 14.4004 96.1009 14.4053 96.2523 14.415C96.4036 14.4199 96.5574 14.4272 96.7137 14.437C96.7137 13.8853 96.5794 13.4751 96.3109 13.2065C96.0423 12.938 95.6273 12.8037 95.0658 12.8037C94.2161 12.8037 93.4495 13.0747 92.7659 13.6167L92.7074 11.9468C93.5033 11.6099 94.3651 11.4414 95.2928 11.4414C95.6395 11.4414 95.9837 11.4756 96.3255 11.5439C96.6673 11.6123 96.9823 11.7271 97.2703 11.8882C97.5633 12.0444 97.805 12.2544 97.9954 12.5181C98.1908 12.7817 98.3177 13.0845 98.3763 13.4263C98.4398 13.7632 98.4715 14.166 98.4715 14.6348C98.4715 15.1182 98.4715 15.604 98.4715 16.0923C98.4764 16.5806 98.4813 17.0273 98.4862 17.4326C98.4959 17.833 98.5155 18.3555 98.5448 19ZM96.743 15.6235C96.6942 15.6138 96.6185 15.6089 96.5159 15.6089H96.2816C95.8616 15.6089 95.4759 15.6333 95.1243 15.6821C94.7777 15.7261 94.4725 15.8433 94.2088 16.0337C93.95 16.2192 93.8206 16.4927 93.8206 16.854C93.8206 17.147 93.9354 17.3813 94.1649 17.5571C94.3992 17.728 94.6702 17.8135 94.9779 17.8135C95.5589 17.8135 95.9984 17.5986 96.2962 17.1689C96.5941 16.7393 96.743 16.2241 96.743 15.6235ZM102.019 19H100.1V11.5732H102.019V19ZM102.048 10.2256H100.07V8.40918H102.048V10.2256ZM105.551 19H103.632V8.19678H105.551V19ZM109.238 17.0371V19H107.194V17.0371H109.238ZM115.898 17.1543L116.007 18.7729C115.363 18.9634 114.787 19.0586 114.279 19.0586C113.713 19.0586 113.192 18.9731 112.719 18.8022C112.245 18.6265 111.838 18.3726 111.496 18.0405C111.159 17.7085 110.9 17.3057 110.719 16.832C110.544 16.3535 110.456 15.8262 110.456 15.25C110.456 14.5176 110.612 13.8682 110.924 13.3018C111.242 12.7354 111.686 12.2959 112.257 11.9834C112.834 11.6709 113.483 11.5146 114.206 11.5146C114.743 11.5146 115.287 11.5952 115.839 11.7563L115.692 13.3018C115.253 13.1309 114.858 13.0454 114.506 13.0454C114.106 13.0454 113.747 13.1455 113.429 13.3457C113.112 13.541 112.868 13.8047 112.697 14.1367C112.531 14.4639 112.448 14.8301 112.448 15.2354C112.448 15.9043 112.643 16.4414 113.034 16.8467C113.424 17.252 113.949 17.4546 114.609 17.4546C115.028 17.4546 115.458 17.3545 115.898 17.1543ZM124.301 15.3525C124.301 15.9238 124.208 16.4487 124.022 16.9272C123.837 17.4009 123.573 17.8062 123.231 18.1431C122.894 18.4751 122.489 18.7339 122.016 18.9194C121.542 19.105 121.015 19.1978 120.434 19.1978C119.667 19.1978 118.993 19.0317 118.412 18.6997C117.831 18.3677 117.382 17.8989 117.064 17.2935C116.752 16.688 116.596 16.0068 116.596 15.25C116.596 14.4932 116.757 13.8218 117.079 13.2358C117.401 12.6499 117.853 12.1958 118.434 11.8735C119.02 11.5464 119.691 11.3828 120.448 11.3828C121.034 11.3828 121.564 11.4805 122.038 11.6758C122.516 11.8711 122.924 12.1494 123.261 12.5107C123.598 12.8672 123.854 13.2871 124.03 13.7705C124.21 14.2539 124.301 14.7812 124.301 15.3525ZM122.309 15.3086C122.309 14.9082 122.243 14.5151 122.111 14.1294C121.984 13.7437 121.779 13.4263 121.496 13.1772C121.212 12.9282 120.863 12.8037 120.448 12.8037C120.053 12.8037 119.711 12.9258 119.423 13.1699C119.14 13.4141 118.93 13.7266 118.793 14.1074C118.656 14.4834 118.588 14.8643 118.588 15.25C118.588 15.665 118.651 16.0654 118.778 16.4512C118.91 16.8369 119.118 17.1543 119.401 17.4033C119.684 17.6475 120.043 17.7695 120.477 17.7695C120.785 17.7695 121.056 17.6963 121.29 17.5498C121.525 17.3984 121.715 17.208 121.862 16.9785C122.008 16.7441 122.118 16.4829 122.191 16.1948C122.269 15.9019 122.309 15.6064 122.309 15.3086ZM127.343 11.5732L127.386 12.7012C127.626 12.3105 127.948 12.0054 128.353 11.7856C128.763 11.5659 129.205 11.4561 129.679 11.4561C130.197 11.4561 130.624 11.5635 130.961 11.7783C131.302 11.9883 131.576 12.3203 131.781 12.7744C132.03 12.3496 132.36 12.0249 132.77 11.8003C133.185 11.5708 133.641 11.4561 134.139 11.4561C135.062 11.4561 135.685 11.749 136.007 12.335C136.329 12.916 136.49 13.7021 136.49 14.6934V19H134.572V15.3965V15.1035C134.572 14.5029 134.501 14.0098 134.359 13.624C134.222 13.2383 133.92 13.0454 133.451 13.0454C132.479 13.0454 131.993 13.8853 131.993 15.5649V19H130.074V15.1914V14.6641C130.074 14.2344 129.991 13.8584 129.825 13.5361C129.659 13.209 129.371 13.0454 128.961 13.0454C128.429 13.0454 128.051 13.2725 127.826 13.7266C127.601 14.1758 127.489 14.6934 127.489 15.2793V19H125.57V13.3896C125.57 12.7109 125.551 12.1055 125.511 11.5732H127.343Z" fill="#367DA7"/>
<path d="M17.6013 20.106H137.391V20.8457H17.6013V20.106Z" fill="#367DA7"/>
<defs>
<filter id="filter0_d_22_941" x="0" y="0" width="157" height="35" filterUnits="userSpaceOnUse" color-interpolation-filters="sRGB">
<feFlood flood-opacity="0" result="BackgroundImageFix"/>
<feColorMatrix in="SourceAlpha" type="matrix" values="0 0 0 0 0 0 0 0 0 0 0 0 0 0 0 0 0 0 127 0" result="hardAlpha"/>
<feOffset dy="4"/>
<feGaussianBlur stdDeviation="2"/>
<feComposite in2="hardAlpha" operator="out"/>
<feColorMatrix type="matrix" values="0 0 0 0 0 0 0 0 0 0 0 0 0 0 0 0 0 0 0.1 0"/>
<feBlend mode="normal" in2="BackgroundImageFix" result="effect1_dropShadow_22_941"/>
<feBlend mode="normal" in="SourceGraphic" in2="effect1_dropShadow_22_941" result="shape"/>
</filter>
</defs>
</svg>
