<svg width="77" height="77" viewBox="0 0 77 77" fill="none" xmlns="http://www.w3.org/2000/svg">
<g id="Ellipse 178">
<path id="Ellipse 178_2" d="M74.282 38.5C75.7831 38.5 77.01 39.7186 76.9041 41.2159C76.3432 49.1502 73.3351 56.7412 68.2609 62.9241C62.6102 69.8095 54.747 74.5225 46.011 76.2602C37.2749 77.9979 28.2067 76.6528 20.3512 72.454C12.4958 68.2552 6.33927 61.4625 2.93064 53.2333C-0.477991 45.0042 -0.92782 35.8477 1.6578 27.324C4.24341 18.8004 9.7045 11.437 17.1105 6.48842C24.5166 1.53986 33.4094 -0.687667 42.2737 0.185388C50.2336 0.969374 57.7283 4.21002 63.7354 9.42372C64.869 10.4077 64.8631 12.1369 63.8017 13.1983C62.7402 14.2598 61.026 14.25 59.881 13.2793C54.7721 8.94809 48.4488 6.25593 41.7408 5.59525C34.1281 4.84547 26.491 6.75848 20.1306 11.0083C13.7703 15.2582 9.0803 21.5819 6.85976 28.902C4.63923 36.2222 5.02554 44.0858 7.95289 51.153C10.8802 58.2203 16.1675 64.0538 22.9138 67.6598C29.66 71.2658 37.4479 72.421 44.9505 70.9286C52.453 69.4363 59.206 65.3887 64.0588 59.4756C68.3349 54.2651 70.9025 47.8903 71.4523 41.2151C71.5756 39.719 72.7809 38.5 74.282 38.5Z" fill="url(#paint0_linear_10_326)"/>
</g>
<defs>
<linearGradient id="paint0_linear_10_326" x1="67.2618" y1="47.304" x2="84.2754" y2="19.8728" gradientUnits="userSpaceOnUse">
<stop stop-color="#EC121F"/>
<stop offset="1" stop-color="#FFCDD0"/>
</linearGradient>
</defs>
</svg>
