<svg width="116" height="35" viewBox="0 0 116 35" fill="none" xmlns="http://www.w3.org/2000/svg">
<g filter="url(#filter0_d_22_937)">
<rect x="4" width="108" height="27" rx="5" fill="#EDF7FC"/>
</g>
<path d="M12.2331 18.7729L12.4162 16.9785C13.2073 17.4082 13.9617 17.623 14.6794 17.623C15.1433 17.623 15.5486 17.5083 15.8953 17.2788C16.2468 17.0493 16.4226 16.7124 16.4226 16.2681C16.4226 15.8188 16.2737 15.499 15.9758 15.3086C15.6828 15.1182 15.1482 14.8569 14.3718 14.5249C13.5954 14.188 13.012 13.8145 12.6213 13.4043C12.2356 12.9893 12.0427 12.3984 12.0427 11.6318C12.0427 10.9922 12.2038 10.46 12.5261 10.0352C12.8533 9.60547 13.2829 9.29053 13.8152 9.09033C14.3523 8.88525 14.9358 8.78271 15.5657 8.78271C16.4104 8.78271 17.2063 8.91455 17.9534 9.17822L17.7849 10.8262C17.0574 10.4941 16.3664 10.3281 15.7121 10.3281C15.2825 10.3281 14.9065 10.4258 14.5842 10.6211C14.2668 10.8115 14.1081 11.1143 14.1081 11.5293C14.1081 11.9248 14.2278 12.1958 14.467 12.3423C14.7063 12.4888 15.2483 12.75 16.093 13.126C16.9426 13.4971 17.5676 13.895 17.968 14.3198C18.3684 14.7397 18.5686 15.3306 18.5686 16.0923C18.5686 16.6343 18.4685 17.103 18.2683 17.4985C18.0681 17.894 17.7898 18.2212 17.4333 18.48C17.0818 18.7339 16.6765 18.9219 16.2175 19.0439C15.7634 19.166 15.28 19.2271 14.7673 19.2271C13.9568 19.2271 13.112 19.0757 12.2331 18.7729ZM24.9649 17.1543L25.0748 18.7729C24.4302 18.9634 23.8541 19.0586 23.3462 19.0586C22.7798 19.0586 22.2598 18.9731 21.7862 18.8022C21.3126 18.6265 20.9048 18.3726 20.563 18.0405C20.2261 17.7085 19.9673 17.3057 19.7867 16.832C19.6109 16.3535 19.523 15.8262 19.523 15.25C19.523 14.5176 19.6793 13.8682 19.9918 13.3018C20.3091 12.7354 20.7535 12.2959 21.3248 11.9834C21.9009 11.6709 22.5504 11.5146 23.273 11.5146C23.8101 11.5146 24.3545 11.5952 24.9063 11.7563L24.7598 13.3018C24.3204 13.1309 23.9249 13.0454 23.5733 13.0454C23.1729 13.0454 22.814 13.1455 22.4966 13.3457C22.1793 13.541 21.9351 13.8047 21.7642 14.1367C21.5982 14.4639 21.5152 14.8301 21.5152 15.2354C21.5152 15.9043 21.7105 16.4414 22.1011 16.8467C22.4918 17.252 23.0167 17.4546 23.6758 17.4546C24.0958 17.4546 24.5254 17.3545 24.9649 17.1543ZM32.9213 19H31.0023V15.3965C31.0023 14.6836 30.9242 14.1147 30.7679 13.6899C30.6166 13.2603 30.2553 13.0454 29.684 13.0454C29.0687 13.0454 28.6366 13.2993 28.3876 13.8071C28.1386 14.3101 28.014 14.9009 28.014 15.5796V15.9531V19H26.0951V8.19678H28.014V12.6279C28.2924 12.2275 28.6268 11.9297 29.0175 11.7344C29.4081 11.5391 29.8549 11.4414 30.3578 11.4414C30.8803 11.4414 31.3099 11.5269 31.6469 11.6978C31.9887 11.8638 32.2499 12.0908 32.4305 12.3789C32.6161 12.667 32.743 13.0039 32.8114 13.3896C32.8846 13.7705 32.9213 14.2197 32.9213 14.7373V19ZM40.4602 17.0225L40.4895 18.6851C39.7033 19.0269 38.8537 19.1978 37.9406 19.1978C37.3303 19.1978 36.7858 19.1123 36.3073 18.9414C35.8337 18.7656 35.4284 18.5093 35.0915 18.1724C34.7546 17.8306 34.4982 17.4204 34.3225 16.9419C34.1467 16.4585 34.0588 15.9092 34.0588 15.2939C34.0588 14.7275 34.1394 14.2075 34.3005 13.7339C34.4665 13.2554 34.7033 12.8428 35.0109 12.4961C35.3186 12.1445 35.697 11.8711 36.1462 11.6758C36.6003 11.4805 37.113 11.3828 37.6843 11.3828C38.2409 11.3828 38.7316 11.4829 39.1564 11.6831C39.5812 11.8833 39.9255 12.1592 40.1892 12.5107C40.4577 12.8623 40.6579 13.27 40.7897 13.7339C40.9216 14.1929 40.9875 14.6982 40.9875 15.25C40.9875 15.3477 40.9851 15.4209 40.9802 15.4697C40.9753 15.5186 40.9704 15.5796 40.9655 15.6528C40.9606 15.7261 40.9533 15.8115 40.9436 15.9092H35.9484C35.9973 16.4951 36.2243 16.9517 36.6296 17.2788C37.0397 17.606 37.5476 17.7695 38.153 17.7695C38.8366 17.7695 39.6057 17.5205 40.4602 17.0225ZM39.1564 14.5762C39.1467 14.2441 39.0856 13.939 38.9733 13.6606C38.8659 13.3823 38.6975 13.1577 38.468 12.9868C38.2434 12.8159 37.9626 12.7305 37.6257 12.7305C37.279 12.7305 36.9812 12.8159 36.7321 12.9868C36.488 13.1528 36.2976 13.375 36.1608 13.6533C36.029 13.9316 35.9484 14.2393 35.9191 14.5762H39.1564ZM49.0537 19H47.2373L47.208 17.7402C46.9883 18.1846 46.6734 18.5264 46.2632 18.7656C45.8579 19 45.3989 19.1172 44.8862 19.1172C44.3491 19.1172 43.8779 19.0122 43.4727 18.8022C43.0723 18.5874 42.7476 18.2993 42.4986 17.938C42.2495 17.5767 42.064 17.1665 41.9419 16.7075C41.8247 16.2485 41.7661 15.7676 41.7661 15.2646C41.7661 14.6006 41.876 13.978 42.0957 13.397C42.3154 12.811 42.6548 12.3398 43.1138 11.9834C43.5777 11.6221 44.1538 11.4414 44.8423 11.4414C45.3599 11.4414 45.8115 11.5562 46.1973 11.7856C46.583 12.0151 46.9004 12.3545 47.1494 12.8037C47.1006 12.4424 47.0762 12.0029 47.0762 11.4854V8.19678H48.9951V16.8394C49.0049 17.3179 49.0122 17.7378 49.0171 18.0991C49.0269 18.4604 49.0391 18.7607 49.0537 19ZM47.1055 15.3379C47.1055 14.9521 47.0445 14.5884 46.9224 14.2466C46.8003 13.8999 46.6074 13.6143 46.3438 13.3896C46.085 13.1602 45.7627 13.0454 45.377 13.0454C44.8008 13.0454 44.3858 13.2676 44.1319 13.7119C43.8828 14.1514 43.7583 14.6836 43.7583 15.3086C43.7583 15.8945 43.8975 16.4243 44.1758 16.8979C44.4541 17.3716 44.8643 17.6084 45.4063 17.6084C45.7725 17.6084 46.085 17.4985 46.3438 17.2788C46.6074 17.0542 46.8003 16.771 46.9224 16.4292C47.0445 16.0825 47.1055 15.7188 47.1055 15.3379ZM57.3543 11.5732V16.1069C57.3641 16.3169 57.3739 16.6416 57.3836 17.0811C57.3983 17.5205 57.4105 17.8721 57.4203 18.1357C57.43 18.3994 57.4447 18.6875 57.4642 19H55.6478L55.5892 17.8574C55.4183 18.126 55.2108 18.353 54.9666 18.5386C54.7274 18.7241 54.4564 18.8682 54.1537 18.9707C53.8509 19.0684 53.5482 19.1172 53.2454 19.1172C52.557 19.1172 52.0199 18.9756 51.6341 18.6924C51.2484 18.4092 50.9823 18.021 50.8358 17.5278C50.6942 17.0347 50.6234 16.4463 50.6234 15.7627V11.5732H52.5423V15.1475C52.5423 15.6113 52.5643 16.0044 52.6082 16.3267C52.6571 16.644 52.7816 16.9224 52.9818 17.1616C53.182 17.396 53.4847 17.5132 53.89 17.5132C54.471 17.5132 54.8739 17.269 55.0985 16.7808C55.3231 16.2876 55.4354 15.7114 55.4354 15.0522V11.5732H57.3543ZM60.9821 19H59.0631V8.19678H60.9821V19ZM68.5796 17.0225L68.6089 18.6851C67.8227 19.0269 66.9731 19.1978 66.06 19.1978C65.4497 19.1978 64.9053 19.1123 64.4267 18.9414C63.9531 18.7656 63.5478 18.5093 63.2109 18.1724C62.874 17.8306 62.6177 17.4204 62.4419 16.9419C62.2661 16.4585 62.1782 15.9092 62.1782 15.2939C62.1782 14.7275 62.2588 14.2075 62.4199 13.7339C62.5859 13.2554 62.8227 12.8428 63.1303 12.4961C63.438 12.1445 63.8164 11.8711 64.2656 11.6758C64.7197 11.4805 65.2324 11.3828 65.8037 11.3828C66.3603 11.3828 66.8511 11.4829 67.2759 11.6831C67.7007 11.8833 68.0449 12.1592 68.3086 12.5107C68.5771 12.8623 68.7773 13.27 68.9092 13.7339C69.041 14.1929 69.1069 14.6982 69.1069 15.25C69.1069 15.3477 69.1045 15.4209 69.0996 15.4697C69.0947 15.5186 69.0898 15.5796 69.0849 15.6528C69.0801 15.7261 69.0727 15.8115 69.063 15.9092H64.0678C64.1167 16.4951 64.3437 16.9517 64.749 17.2788C65.1592 17.606 65.667 17.7695 66.2724 17.7695C66.956 17.7695 67.7251 17.5205 68.5796 17.0225ZM67.2759 14.5762C67.2661 14.2441 67.2051 13.939 67.0928 13.6606C66.9853 13.3823 66.8169 13.1577 66.5874 12.9868C66.3628 12.8159 66.082 12.7305 65.7451 12.7305C65.3984 12.7305 65.1006 12.8159 64.8515 12.9868C64.6074 13.1528 64.417 13.375 64.2803 13.6533C64.1484 13.9316 64.0678 14.2393 64.0386 14.5762H67.2759ZM82.632 19H80.2003L76.9191 12.9575C76.7091 12.5767 76.4332 11.9858 76.0914 11.1851C76.2428 12.2251 76.3185 13.0845 76.3185 13.7632V19H74.3995V8.99512H76.7799L80.1417 15.0522C80.2589 15.2671 80.3346 15.4209 80.3688 15.5137C80.4078 15.6064 80.4786 15.7822 80.5812 16.041C80.6837 16.2998 80.7887 16.561 80.8961 16.8247C80.774 16.1265 80.713 15.311 80.713 14.3784V8.99512H82.632V19ZM91.7602 15.3525C91.7602 15.9238 91.6674 16.4487 91.4819 16.9272C91.2963 17.4009 91.0327 17.8062 90.6909 18.1431C90.3539 18.4751 89.9487 18.7339 89.475 18.9194C89.0014 19.105 88.4741 19.1978 87.893 19.1978C87.1264 19.1978 86.4526 19.0317 85.8715 18.6997C85.2905 18.3677 84.8412 17.8989 84.5239 17.2935C84.2114 16.688 84.0551 16.0068 84.0551 15.25C84.0551 14.4932 84.2162 13.8218 84.5385 13.2358C84.8608 12.6499 85.3124 12.1958 85.8935 11.8735C86.4794 11.5464 87.1508 11.3828 87.9077 11.3828C88.4936 11.3828 89.0234 11.4805 89.497 11.6758C89.9755 11.8711 90.3832 12.1494 90.7202 12.5107C91.0571 12.8672 91.3134 13.2871 91.4892 13.7705C91.6699 14.2539 91.7602 14.7812 91.7602 15.3525ZM89.768 15.3086C89.768 14.9082 89.7021 14.5151 89.5703 14.1294C89.4433 13.7437 89.2382 13.4263 88.955 13.1772C88.6718 12.9282 88.3227 12.8037 87.9077 12.8037C87.5121 12.8037 87.1703 12.9258 86.8823 13.1699C86.5991 13.4141 86.3891 13.7266 86.2524 14.1074C86.1157 14.4834 86.0473 14.8643 86.0473 15.25C86.0473 15.665 86.1108 16.0654 86.2377 16.4512C86.3696 16.8369 86.5771 17.1543 86.8603 17.4033C87.1435 17.6475 87.5024 17.7695 87.937 17.7695C88.2446 17.7695 88.5156 17.6963 88.7499 17.5498C88.9843 17.3984 89.1747 17.208 89.3212 16.9785C89.4677 16.7441 89.5776 16.4829 89.6508 16.1948C89.7289 15.9019 89.768 15.6064 89.768 15.3086ZM104.66 11.5732L102.361 19H100.127L99.1965 16.1216C98.9866 15.438 98.8279 14.8911 98.7205 14.481C98.6131 14.0659 98.5276 13.6069 98.4641 13.104C98.4055 13.436 98.3445 13.7388 98.281 14.0122C98.2175 14.2808 98.1394 14.5933 98.0466 14.9497C97.9539 15.3062 97.8684 15.6406 97.7903 15.9531L96.8601 19H94.6482L92.1287 11.5732H94.1575L95.0291 14.2466C95.4295 15.4868 95.698 16.5708 95.8347 17.4985C95.9129 16.9712 96.0032 16.4829 96.1057 16.0337C96.2132 15.5845 96.3425 15.0986 96.4939 14.5762L97.3801 11.5732H99.5994L100.654 14.9204C100.952 15.8286 101.157 16.6782 101.269 17.4692C101.382 16.6489 101.57 15.7896 101.833 14.8911L102.8 11.5732H104.66Z" fill="#367DA7"/>
<defs>
<filter id="filter0_d_22_937" x="0" y="0" width="116" height="35" filterUnits="userSpaceOnUse" color-interpolation-filters="sRGB">
<feFlood flood-opacity="0" result="BackgroundImageFix"/>
<feColorMatrix in="SourceAlpha" type="matrix" values="0 0 0 0 0 0 0 0 0 0 0 0 0 0 0 0 0 0 127 0" result="hardAlpha"/>
<feOffset dy="4"/>
<feGaussianBlur stdDeviation="2"/>
<feComposite in2="hardAlpha" operator="out"/>
<feColorMatrix type="matrix" values="0 0 0 0 0 0 0 0 0 0 0 0 0 0 0 0 0 0 0.1 0"/>
<feBlend mode="normal" in2="BackgroundImageFix" result="effect1_dropShadow_22_937"/>
<feBlend mode="normal" in="SourceGraphic" in2="effect1_dropShadow_22_937" result="shape"/>
</filter>
</defs>
</svg>
