<svg width="35" height="35" viewBox="0 0 35 35" fill="none" xmlns="http://www.w3.org/2000/svg">
<circle cx="17.5" cy="17.5" r="17.5" fill="#367DA7"/>
<path d="M24.655 17.405C24.5144 17.5454 24.3238 17.6243 24.125 17.6243C23.9263 17.6243 23.7356 17.5454 23.595 17.405L18.625 12.435V26.875C18.625 27.0739 18.546 27.2646 18.4054 27.4053C18.2647 27.5459 18.0739 27.625 17.875 27.625C17.6761 27.625 17.4853 27.5459 17.3447 27.4053C17.204 27.2646 17.125 27.0739 17.125 26.875V12.435L12.155 17.405C12.0633 17.5037 11.9467 17.5758 11.8175 17.6139C11.6882 17.6519 11.5511 17.6543 11.4206 17.621C11.2901 17.5876 11.171 17.5196 11.0758 17.4242C10.9807 17.3288 10.9131 17.2096 10.88 17.079C10.8466 16.9486 10.8489 16.8116 10.8868 16.6824C10.9246 16.5533 10.9965 16.4367 11.095 16.345L17.345 10.095C17.4856 9.9545 17.6763 9.87561 17.875 9.87561C18.0738 9.87561 18.2644 9.9545 18.405 10.095L24.655 16.345C24.7955 16.4856 24.8744 16.6762 24.8744 16.875C24.8744 17.0737 24.7955 17.2643 24.655 17.405Z" fill="white"/>
</svg>
