<svg width="24" height="24" viewBox="0 0 24 24" fill="none" xmlns="http://www.w3.org/2000/svg">
<path d="M14.377 0.779494L15.7705 1.79949C16 1.96749 16.267 2.07849 16.5475 2.12199L18.2545 2.38449C19.0991 2.51434 19.8803 2.91015 20.4846 3.51441C21.0888 4.11866 21.4846 4.89987 21.6145 5.74449L21.8755 7.45299C21.919 7.73349 22.03 8.00049 22.198 8.22999L23.218 9.62199C23.7244 10.3113 23.9975 11.1442 23.9975 11.9995C23.9975 12.8548 23.7244 13.6877 23.218 14.377L22.198 15.769C22.0293 15.9981 21.9186 16.2647 21.8755 16.546L21.613 18.253C21.4834 19.0981 21.0875 19.8798 20.4829 20.4844C19.8783 21.089 19.0966 21.4849 18.2515 21.6145L16.5445 21.877C16.2632 21.9199 15.9965 22.0306 15.7675 22.1995L14.3755 23.2195C13.6862 23.7259 12.8533 23.999 11.998 23.999C11.1427 23.999 10.3098 23.7259 9.62049 23.2195L8.22849 22.1995C7.99935 22.0308 7.73275 21.9201 7.45149 21.877L5.74449 21.6145C4.89987 21.4846 4.11866 21.0888 3.51441 20.4846C2.91015 19.8803 2.51434 19.0991 2.38449 18.2545L2.12199 16.5475C2.07908 16.2662 1.9684 15.9995 1.79949 15.7705L0.779494 14.3785C0.273093 13.6892 0 12.8563 0 12.001C0 11.1457 0.273093 10.3128 0.779494 9.62349L1.79949 8.23149C1.96749 8.00199 2.07849 7.73499 2.12199 7.45449L2.38449 5.74449C2.51434 4.89987 2.91015 4.11866 3.51441 3.51441C4.11866 2.91015 4.89987 2.51434 5.74449 2.38449L7.45299 2.12199C7.73349 2.07849 8.00049 1.96749 8.22999 1.79949L9.62199 0.779494C10.3113 0.273093 11.1442 0 11.9995 0C12.8548 0 13.6877 0.273093 14.377 0.779494ZM10.954 2.59149L9.56349 3.61149C9.04153 3.9956 8.43415 4.2473 7.79349 4.34499L6.08799 4.60599C5.71574 4.66298 5.3714 4.83732 5.10511 5.10361C4.83882 5.3699 4.66448 5.71424 4.60749 6.08649L4.34649 7.79049C4.24839 8.43104 3.99673 9.03832 3.61299 9.56049L2.59299 10.9525C2.37093 11.2559 2.25122 11.622 2.25122 11.998C2.25122 12.3739 2.37093 12.7401 2.59299 13.0435L3.61299 14.434C3.99699 14.956 4.24899 15.5635 4.34649 16.204L4.60749 17.9095C4.72449 18.673 5.32449 19.273 6.08799 19.39L7.79199 19.651C8.43265 19.7487 9.04003 20.0004 9.56199 20.3845L10.954 21.4045C11.575 21.862 12.4225 21.862 13.045 21.4045L14.4355 20.3845C14.9575 20.0004 15.5648 19.7487 16.2055 19.651L17.911 19.39C18.2832 19.3328 18.6274 19.1584 18.8936 18.8921C19.1599 18.6259 19.3343 18.2817 19.3915 17.9095L19.6525 16.2055C19.7502 15.5648 20.0019 14.9575 20.386 14.4355L21.406 13.0435C21.629 12.7405 21.7492 12.3742 21.7492 11.998C21.7492 11.6218 21.629 11.2555 21.406 10.9525L20.386 9.56199C20.0027 9.03956 19.7511 8.43239 19.6525 7.79199L19.3915 6.08649C19.3345 5.71424 19.1602 5.3699 18.8939 5.10361C18.6276 4.83732 18.2832 4.66298 17.911 4.60599L16.207 4.34499C15.5665 4.24689 14.9592 3.99523 14.437 3.61149L13.045 2.59149C12.742 2.36854 12.3757 2.24828 11.9995 2.24828C11.6233 2.24828 11.257 2.36854 10.954 2.59149ZM16.9195 10.1695L11.2945 15.7945C11.0836 16.0052 10.7976 16.1235 10.4995 16.1235C10.2014 16.1235 9.91543 16.0052 9.70449 15.7945L7.07949 13.1695C6.88088 12.9561 6.77273 12.674 6.77776 12.3825C6.7828 12.0911 6.90063 11.8129 7.10649 11.6065C7.3129 11.4006 7.59107 11.2828 7.88255 11.2778C8.17402 11.2727 8.4561 11.3809 8.66949 11.5795L10.4995 13.4095L15.3295 8.57949C15.5429 8.38088 15.825 8.27273 16.1164 8.27776C16.4079 8.2828 16.6861 8.40063 16.8925 8.60649C17.0984 8.8129 17.2162 9.09107 17.2212 9.38255C17.2263 9.67402 17.1181 9.9561 16.9195 10.1695Z" fill="#EC121F"/>
</svg>
