<svg width="390" height="110" viewBox="0 0 390 110" fill="none" xmlns="http://www.w3.org/2000/svg">
<rect y="1" width="391" height="78" rx="1" fill="white"/>
<path d="M126.835 72H125.487V68.0596C125.507 67.4606 125.536 66.86 125.575 66.2578H125.536C125.471 66.5215 125.404 66.7526 125.336 66.9512L123.637 72H122.396L120.956 67.8301C120.777 67.3092 120.624 66.7852 120.497 66.2578H120.458C120.523 66.9023 120.556 67.4867 120.556 68.0107V72H119.276V65.3301H121.405L122.616 68.8311C122.805 69.3942 122.948 69.9411 123.046 70.4717C123.104 70.1917 123.16 69.9492 123.212 69.7441C123.267 69.5358 123.329 69.3275 123.397 69.1191L124.677 65.3301H126.835V72ZM133.134 69.5684C133.134 69.9492 133.072 70.2992 132.948 70.6182C132.825 70.9339 132.649 71.2041 132.421 71.4287C132.196 71.6501 131.926 71.8226 131.61 71.9463C131.295 72.07 130.943 72.1318 130.556 72.1318C130.045 72.1318 129.595 72.0212 129.208 71.7998C128.821 71.5785 128.521 71.266 128.31 70.8623C128.101 70.4587 127.997 70.0046 127.997 69.5C127.997 68.9954 128.104 68.5479 128.319 68.1572C128.534 67.7666 128.835 67.4639 129.223 67.249C129.613 67.0309 130.061 66.9219 130.565 66.9219C130.956 66.9219 131.309 66.987 131.625 67.1172C131.944 67.2474 132.216 67.4329 132.44 67.6738C132.665 67.9115 132.836 68.1914 132.953 68.5137C133.074 68.8359 133.134 69.1875 133.134 69.5684ZM131.806 69.5391C131.806 69.2721 131.762 69.0101 131.674 68.7529C131.589 68.4958 131.452 68.2842 131.264 68.1182C131.075 67.9521 130.842 67.8691 130.565 67.8691C130.302 67.8691 130.074 67.9505 129.882 68.1133C129.693 68.276 129.553 68.4844 129.462 68.7383C129.371 68.9889 129.325 69.2428 129.325 69.5C129.325 69.7767 129.368 70.0436 129.452 70.3008C129.54 70.5579 129.678 70.7695 129.867 70.9355C130.056 71.0983 130.295 71.1797 130.585 71.1797C130.79 71.1797 130.971 71.1309 131.127 71.0332C131.283 70.9323 131.41 70.8053 131.508 70.6523C131.605 70.4961 131.679 70.3219 131.728 70.1299C131.78 69.9346 131.806 69.7376 131.806 69.5391ZM136.884 72H135.453L133.603 67.0488H135.004L135.834 69.4316C136.052 70.0404 136.186 70.5303 136.234 70.9014C136.312 70.5075 136.417 70.1234 136.547 69.749L137.436 67.0488H138.725L136.884 72ZM143.446 70.6816L143.466 71.79C142.942 72.0179 142.375 72.1318 141.767 72.1318C141.36 72.1318 140.997 72.0749 140.678 71.9609C140.362 71.8438 140.092 71.6729 139.867 71.4482C139.643 71.2204 139.472 70.9469 139.354 70.6279C139.237 70.3057 139.179 69.9395 139.179 69.5293C139.179 69.1517 139.232 68.805 139.34 68.4893C139.451 68.1702 139.608 67.8952 139.813 67.6641C140.019 67.4297 140.271 67.2474 140.57 67.1172C140.873 66.987 141.215 66.9219 141.596 66.9219C141.967 66.9219 142.294 66.9886 142.577 67.1221C142.86 67.2555 143.09 67.4395 143.266 67.6738C143.445 67.9082 143.578 68.18 143.666 68.4893C143.754 68.7952 143.798 69.1322 143.798 69.5C143.798 69.5651 143.796 69.6139 143.793 69.6465C143.79 69.679 143.786 69.7197 143.783 69.7686C143.78 69.8174 143.775 69.8743 143.769 69.9395H140.438C140.471 70.3301 140.622 70.6344 140.893 70.8525C141.166 71.0706 141.505 71.1797 141.908 71.1797C142.364 71.1797 142.877 71.0137 143.446 70.6816ZM142.577 69.0508C142.571 68.8294 142.53 68.626 142.455 68.4404C142.383 68.2549 142.271 68.1051 142.118 67.9912C141.968 67.8773 141.781 67.8203 141.557 67.8203C141.326 67.8203 141.127 67.8773 140.961 67.9912C140.798 68.1019 140.671 68.25 140.58 68.4355C140.492 68.6211 140.438 68.8262 140.419 69.0508H142.577ZM155.312 72H153.964V68.0596C153.983 67.4606 154.013 66.86 154.052 66.2578H154.013C153.948 66.5215 153.881 66.7526 153.812 66.9512L152.113 72H150.873L149.433 67.8301C149.254 67.3092 149.101 66.7852 148.974 66.2578H148.935C149 66.9023 149.032 67.4867 149.032 68.0107V72H147.753V65.3301H149.882L151.093 68.8311C151.282 69.3942 151.425 69.9411 151.522 70.4717C151.581 70.1917 151.636 69.9492 151.688 69.7441C151.744 69.5358 151.806 69.3275 151.874 69.1191L153.153 65.3301H155.312V72ZM161.61 69.5684C161.61 69.9492 161.549 70.2992 161.425 70.6182C161.301 70.9339 161.125 71.2041 160.897 71.4287C160.673 71.6501 160.403 71.8226 160.087 71.9463C159.771 72.07 159.42 72.1318 159.032 72.1318C158.521 72.1318 158.072 72.0212 157.685 71.7998C157.297 71.5785 156.998 71.266 156.786 70.8623C156.578 70.4587 156.474 70.0046 156.474 69.5C156.474 68.9954 156.581 68.5479 156.796 68.1572C157.011 67.7666 157.312 67.4639 157.699 67.249C158.09 67.0309 158.537 66.9219 159.042 66.9219C159.433 66.9219 159.786 66.987 160.102 67.1172C160.421 67.2474 160.692 67.4329 160.917 67.6738C161.142 67.9115 161.312 68.1914 161.43 68.5137C161.55 68.8359 161.61 69.1875 161.61 69.5684ZM160.282 69.5391C160.282 69.2721 160.238 69.0101 160.15 68.7529C160.066 68.4958 159.929 68.2842 159.74 68.1182C159.551 67.9521 159.319 67.8691 159.042 67.8691C158.778 67.8691 158.55 67.9505 158.358 68.1133C158.17 68.276 158.03 68.4844 157.938 68.7383C157.847 68.9889 157.802 69.2428 157.802 69.5C157.802 69.7767 157.844 70.0436 157.929 70.3008C158.017 70.5579 158.155 70.7695 158.344 70.9355C158.533 71.0983 158.772 71.1797 159.062 71.1797C159.267 71.1797 159.447 71.1309 159.604 71.0332C159.76 70.9323 159.887 70.8053 159.984 70.6523C160.082 70.4961 160.155 70.3219 160.204 70.1299C160.256 69.9346 160.282 69.7376 160.282 69.5391ZM163.842 67.0488L163.871 67.8398C164.268 67.2604 164.825 66.9707 165.541 66.9707C166.205 66.9707 166.653 67.1676 166.884 67.5615C167.115 67.9521 167.23 68.5023 167.23 69.2119V72H165.951V69.5098C165.951 69.0703 165.894 68.7139 165.78 68.4404C165.67 68.167 165.427 68.0303 165.053 68.0303C164.652 68.0303 164.371 68.1914 164.208 68.5137C164.045 68.8327 163.964 69.2119 163.964 69.6514V72H162.68V68.8506C162.68 68.1507 162.663 67.5501 162.631 67.0488H163.842ZM172.46 70.6816L172.479 71.79C171.955 72.0179 171.389 72.1318 170.78 72.1318C170.373 72.1318 170.01 72.0749 169.691 71.9609C169.376 71.8438 169.105 71.6729 168.881 71.4482C168.656 71.2204 168.485 70.9469 168.368 70.6279C168.251 70.3057 168.192 69.9395 168.192 69.5293C168.192 69.1517 168.246 68.805 168.354 68.4893C168.464 68.1702 168.622 67.8952 168.827 67.6641C169.032 67.4297 169.285 67.2474 169.584 67.1172C169.887 66.987 170.229 66.9219 170.609 66.9219C170.98 66.9219 171.308 66.9886 171.591 67.1221C171.874 67.2555 172.104 67.4395 172.279 67.6738C172.458 67.9082 172.592 68.18 172.68 68.4893C172.768 68.7952 172.812 69.1322 172.812 69.5C172.812 69.5651 172.81 69.6139 172.807 69.6465C172.803 69.679 172.8 69.7197 172.797 69.7686C172.794 69.8174 172.789 69.8743 172.782 69.9395H169.452C169.485 70.3301 169.636 70.6344 169.906 70.8525C170.18 71.0706 170.518 71.1797 170.922 71.1797C171.378 71.1797 171.89 71.0137 172.46 70.6816ZM171.591 69.0508C171.584 68.8294 171.544 68.626 171.469 68.4404C171.397 68.2549 171.285 68.1051 171.132 67.9912C170.982 67.8773 170.795 67.8203 170.57 67.8203C170.339 67.8203 170.141 67.8773 169.975 67.9912C169.812 68.1019 169.685 68.25 169.594 68.4355C169.506 68.6211 169.452 68.8262 169.433 69.0508H171.591ZM173.603 73.958L173.69 72.9912C173.879 73.0628 174.06 73.0986 174.232 73.0986C174.493 73.0986 174.696 73.0238 174.843 72.874C174.989 72.7243 175.116 72.516 175.224 72.249L173.271 67.0391H174.691L175.712 70.0615C175.735 70.1331 175.764 70.2259 175.8 70.3398C175.836 70.4505 175.876 70.5807 175.922 70.7305C175.971 70.5547 176.015 70.3968 176.054 70.2568C176.096 70.1136 176.132 69.998 176.161 69.9102L177.123 67.0391H178.422L176.454 72.3418C176.304 72.7292 176.153 73.0417 176 73.2793C175.85 73.5202 175.652 73.7155 175.404 73.8652C175.16 74.015 174.859 74.0898 174.501 74.0898C174.26 74.0898 173.961 74.0459 173.603 73.958Z" fill="#505050"/>
<path d="M235.103 70H233.633L233.052 68.4814H230.293L229.722 70H228.33L230.933 63.3301H232.432L235.103 70ZM232.642 67.3877L231.782 65.0293C231.763 64.9772 231.719 64.8307 231.65 64.5898C231.624 64.6908 231.598 64.7933 231.572 64.8975C231.546 64.9984 231.523 65.0798 231.504 65.1416L230.703 67.3877H232.642ZM240.415 70H239.204L239.185 69.1602C239.038 69.4564 238.828 69.6842 238.555 69.8438C238.285 70 237.979 70.0781 237.637 70.0781C237.279 70.0781 236.965 70.0081 236.694 69.8682C236.427 69.7249 236.211 69.5329 236.045 69.292C235.879 69.0511 235.755 68.7777 235.674 68.4717C235.596 68.1657 235.557 67.8451 235.557 67.5098C235.557 67.0671 235.63 66.652 235.776 66.2646C235.923 65.874 236.149 65.5599 236.455 65.3223C236.764 65.0814 237.148 64.9609 237.607 64.9609C237.952 64.9609 238.254 65.0374 238.511 65.1904C238.768 65.3434 238.979 65.5697 239.146 65.8691C239.113 65.6283 239.097 65.3353 239.097 64.9902V62.7979H240.376V68.5596C240.382 68.8786 240.387 69.1585 240.391 69.3994C240.397 69.6403 240.405 69.8405 240.415 70ZM239.116 67.5586C239.116 67.3014 239.076 67.0589 238.994 66.8311C238.913 66.5999 238.784 66.4095 238.608 66.2598C238.436 66.1068 238.221 66.0303 237.964 66.0303C237.58 66.0303 237.303 66.1784 237.134 66.4746C236.968 66.7676 236.885 67.1224 236.885 67.5391C236.885 67.9297 236.978 68.2829 237.163 68.5986C237.349 68.9144 237.622 69.0723 237.983 69.0723C238.228 69.0723 238.436 68.999 238.608 68.8525C238.784 68.7028 238.913 68.514 238.994 68.2861C239.076 68.055 239.116 67.8125 239.116 67.5586ZM244.443 70H243.013L241.162 65.0488H242.563L243.394 67.4316C243.612 68.0404 243.745 68.5303 243.794 68.9014C243.872 68.5075 243.976 68.1234 244.106 67.749L244.995 65.0488H246.284L244.443 70ZM248.306 70H247.026V65.0488H248.306V70ZM248.325 64.1504H247.007V62.9395H248.325V64.1504ZM252.954 68.7695L253.027 69.8486C252.598 69.9756 252.214 70.0391 251.875 70.0391C251.497 70.0391 251.151 69.9821 250.835 69.8682C250.519 69.751 250.247 69.5817 250.02 69.3604C249.795 69.139 249.622 68.8704 249.502 68.5547C249.385 68.2357 249.326 67.8841 249.326 67.5C249.326 67.0117 249.43 66.5788 249.639 66.2012C249.85 65.8236 250.146 65.5306 250.527 65.3223C250.911 65.1139 251.344 65.0098 251.826 65.0098C252.184 65.0098 252.547 65.0635 252.915 65.1709L252.817 66.2012C252.524 66.0872 252.261 66.0303 252.026 66.0303C251.759 66.0303 251.52 66.097 251.309 66.2305C251.097 66.3607 250.934 66.5365 250.82 66.7578C250.71 66.9759 250.654 67.2201 250.654 67.4902C250.654 67.9362 250.785 68.2943 251.045 68.5645C251.305 68.8346 251.655 68.9697 252.095 68.9697C252.375 68.9697 252.661 68.903 252.954 68.7695ZM257.9 68.6816L257.92 69.79C257.396 70.0179 256.829 70.1318 256.221 70.1318C255.814 70.1318 255.451 70.0749 255.132 69.9609C254.816 69.8438 254.546 69.6729 254.321 69.4482C254.097 69.2204 253.926 68.9469 253.809 68.6279C253.691 68.3057 253.633 67.9395 253.633 67.5293C253.633 67.1517 253.687 66.805 253.794 66.4893C253.905 66.1702 254.062 65.8952 254.268 65.6641C254.473 65.4297 254.725 65.2474 255.024 65.1172C255.327 64.987 255.669 64.9219 256.05 64.9219C256.421 64.9219 256.748 64.9886 257.031 65.1221C257.314 65.2555 257.544 65.4395 257.72 65.6738C257.899 65.9082 258.032 66.18 258.12 66.4893C258.208 66.7952 258.252 67.1322 258.252 67.5C258.252 67.5651 258.25 67.6139 258.247 67.6465C258.244 67.679 258.241 67.7197 258.237 67.7686C258.234 67.8174 258.229 67.8743 258.223 67.9395H254.893C254.925 68.3301 255.076 68.6344 255.347 68.8525C255.62 69.0706 255.959 69.1797 256.362 69.1797C256.818 69.1797 257.331 69.0137 257.9 68.6816ZM257.031 67.0508C257.025 66.8294 256.984 66.626 256.909 66.4404C256.838 66.2549 256.725 66.1051 256.572 65.9912C256.423 65.8773 256.235 65.8203 256.011 65.8203C255.78 65.8203 255.581 65.8773 255.415 65.9912C255.252 66.1019 255.125 66.25 255.034 66.4355C254.946 66.6211 254.893 66.8262 254.873 67.0508H257.031ZM263.618 66.9678H261.748V66.0986H263.618V64.2676H264.536V66.0986H266.416V66.9678H264.536V68.7988H263.618V66.9678Z" fill="#EC121F"/>
<path d="M347.794 70H346.446V66.0596C346.466 65.4606 346.495 64.86 346.534 64.2578H346.495C346.43 64.5215 346.363 64.7526 346.295 64.9512L344.596 70H343.355L341.915 65.8301C341.736 65.3092 341.583 64.7852 341.456 64.2578H341.417C341.482 64.9023 341.515 65.4867 341.515 66.0107V70H340.235V63.3301H342.364L343.575 66.8311C343.764 67.3942 343.907 67.9411 344.005 68.4717C344.063 68.1917 344.119 67.9492 344.171 67.7441C344.226 67.5358 344.288 67.3275 344.356 67.1191L345.636 63.3301H347.794V70ZM354.093 67.5684C354.093 67.9492 354.031 68.2992 353.907 68.6182C353.784 68.9339 353.608 69.2041 353.38 69.4287C353.155 69.6501 352.885 69.8226 352.569 69.9463C352.254 70.07 351.902 70.1318 351.515 70.1318C351.004 70.1318 350.554 70.0212 350.167 69.7998C349.78 69.5785 349.48 69.266 349.269 68.8623C349.06 68.4587 348.956 68.0046 348.956 67.5C348.956 66.9954 349.063 66.5479 349.278 66.1572C349.493 65.7666 349.794 65.4639 350.182 65.249C350.572 65.0309 351.02 64.9219 351.524 64.9219C351.915 64.9219 352.268 64.987 352.584 65.1172C352.903 65.2474 353.175 65.4329 353.399 65.6738C353.624 65.9115 353.795 66.1914 353.912 66.5137C354.033 66.8359 354.093 67.1875 354.093 67.5684ZM352.765 67.5391C352.765 67.2721 352.721 67.0101 352.633 66.7529C352.548 66.4958 352.411 66.2842 352.223 66.1182C352.034 65.9521 351.801 65.8691 351.524 65.8691C351.261 65.8691 351.033 65.9505 350.841 66.1133C350.652 66.276 350.512 66.4844 350.421 66.7383C350.33 66.9889 350.284 67.2428 350.284 67.5C350.284 67.7767 350.326 68.0436 350.411 68.3008C350.499 68.5579 350.637 68.7695 350.826 68.9355C351.015 69.0983 351.254 69.1797 351.544 69.1797C351.749 69.1797 351.93 69.1309 352.086 69.0332C352.242 68.9323 352.369 68.8053 352.467 68.6523C352.564 68.4961 352.638 68.3219 352.687 68.1299C352.739 67.9346 352.765 67.7376 352.765 67.5391ZM356.432 70H355.152V66.5381C355.136 65.7145 355.123 65.2181 355.113 65.0488H356.275L356.305 66.2988C356.415 65.9082 356.583 65.5957 356.808 65.3613C357.035 65.127 357.332 65.0098 357.696 65.0098C357.807 65.0098 357.932 65.026 358.072 65.0586V66.2598C357.903 66.2142 357.753 66.1914 357.623 66.1914C357.32 66.1914 357.079 66.2712 356.9 66.4307C356.721 66.5902 356.598 66.7952 356.529 67.0459C356.464 67.2933 356.432 67.5651 356.432 67.8613V67.959V70ZM362.843 68.6816L362.862 69.79C362.338 70.0179 361.772 70.1318 361.163 70.1318C360.756 70.1318 360.393 70.0749 360.074 69.9609C359.758 69.8438 359.488 69.6729 359.264 69.4482C359.039 69.2204 358.868 68.9469 358.751 68.6279C358.634 68.3057 358.575 67.9395 358.575 67.5293C358.575 67.1517 358.629 66.805 358.736 66.4893C358.847 66.1702 359.005 65.8952 359.21 65.6641C359.415 65.4297 359.667 65.2474 359.967 65.1172C360.27 64.987 360.611 64.9219 360.992 64.9219C361.363 64.9219 361.69 64.9886 361.974 65.1221C362.257 65.2555 362.486 65.4395 362.662 65.6738C362.841 65.9082 362.975 66.18 363.062 66.4893C363.15 66.7952 363.194 67.1322 363.194 67.5C363.194 67.5651 363.193 67.6139 363.189 67.6465C363.186 67.679 363.183 67.7197 363.18 67.7686C363.176 67.8174 363.172 67.8743 363.165 67.9395H359.835C359.868 68.3301 360.019 68.6344 360.289 68.8525C360.562 69.0706 360.901 69.1797 361.305 69.1797C361.76 69.1797 362.273 69.0137 362.843 68.6816ZM361.974 67.0508C361.967 66.8294 361.926 66.626 361.852 66.4404C361.78 66.2549 361.668 66.1051 361.515 65.9912C361.365 65.8773 361.178 65.8203 360.953 65.8203C360.722 65.8203 360.523 65.8773 360.357 65.9912C360.195 66.1019 360.068 66.25 359.977 66.4355C359.889 66.6211 359.835 66.8262 359.815 67.0508H361.974Z" fill="#505050"/>
<path d="M33.625 36.875L47.5 26.0834L61.375 36.875V53.8334C61.375 54.6511 61.0501 55.4354 60.4719 56.0136C59.8937 56.5919 59.1094 56.9167 58.2917 56.9167H36.7083C35.8906 56.9167 35.1063 56.5919 34.5281 56.0136C33.9499 55.4354 33.625 54.6511 33.625 53.8334V36.875Z" stroke="#505050" stroke-width="3" stroke-linecap="round" stroke-linejoin="round"/>
<path d="M42.875 56.9167V41.5H52.125V56.9167" stroke="#505050" stroke-width="3" stroke-linecap="round" stroke-linejoin="round"/>
<path d="M156.208 38.4167H140.792L146.092 33.7917M140.792 44.5834H156.208L150.908 49.2084" stroke="#505050" stroke-width="3" stroke-linecap="round" stroke-linejoin="round"/>
<path d="M163.917 41.5C163.917 48.7675 163.917 52.4012 161.658 54.6582C159.403 56.9167 155.767 56.9167 148.5 56.9167C141.233 56.9167 137.599 56.9167 135.34 54.6582C133.083 52.4027 133.083 48.7675 133.083 41.5C133.083 34.2326 133.083 30.5989 135.34 28.3404C137.6 26.0834 141.233 26.0834 148.5 26.0834C155.767 26.0834 159.401 26.0834 161.658 28.3404C163.16 29.842 163.662 31.9525 163.832 35.3334" stroke="#505050" stroke-width="3" stroke-linecap="round"/>
<path d="M336 32H367" stroke="#505050" stroke-width="2" stroke-linecap="round"/>
<path d="M336 42H367" stroke="#505050" stroke-width="2" stroke-linecap="round"/>
<path d="M336 52H367" stroke="#505050" stroke-width="2" stroke-linecap="round"/>
<path d="M231 35.0833V52.2708C231 53.7903 231.604 55.2475 232.678 56.322C233.752 57.3964 235.21 58 236.729 58H258.271C259.79 58 261.248 57.3964 262.322 56.322C263.396 55.2475 264 53.7903 264 52.2708V30.7292C264 29.2097 263.396 27.7525 262.322 26.678C261.248 25.6036 259.79 25 258.271 25H241.081V27.2917H241.083V35.0833H231ZM233.292 45.625V37.375H241.083V45.625H233.292ZM233.292 52.2708V47.9167H241.083V55.7083H236.729C235.817 55.7083 234.943 55.3462 234.298 54.7015C233.654 54.0569 233.292 53.1825 233.292 52.2708ZM251.625 55.7083H243.375V47.9167H251.625V55.7083ZM258.271 55.7083H253.917V47.9167H261.708V52.2708C261.708 53.1825 261.346 54.0569 260.702 54.7015C260.057 55.3462 259.183 55.7083 258.271 55.7083ZM261.708 37.375V45.625H253.917V37.375H261.708ZM261.708 30.7292V35.0833H253.917V27.2917H258.271C259.183 27.2917 260.057 27.6538 260.702 28.2985C261.346 28.9431 261.708 29.8175 261.708 30.7292ZM243.375 27.2917H251.625V35.0833H243.375V27.2917ZM251.625 37.375V45.625H243.375V37.375H251.625Z" fill="#EC121F"/>
<path d="M40.2783 72H38.9355V69.1289H36.2744V72H34.9268V65.3301H36.2744V68.04H38.9355V65.3301H40.2783V72ZM46.5771 69.5684C46.5771 69.9492 46.5153 70.2992 46.3916 70.6182C46.2679 70.9339 46.0921 71.2041 45.8643 71.4287C45.6396 71.6501 45.3695 71.8226 45.0537 71.9463C44.738 72.07 44.3864 72.1318 43.999 72.1318C43.488 72.1318 43.0387 72.0212 42.6514 71.7998C42.264 71.5785 41.9645 71.266 41.7529 70.8623C41.5446 70.4587 41.4404 70.0046 41.4404 69.5C41.4404 68.9954 41.5479 68.5479 41.7627 68.1572C41.9775 67.7666 42.2786 67.4639 42.666 67.249C43.0566 67.0309 43.5042 66.9219 44.0088 66.9219C44.3994 66.9219 44.7526 66.987 45.0684 67.1172C45.3874 67.2474 45.6592 67.4329 45.8838 67.6738C46.1084 67.9115 46.2793 68.1914 46.3965 68.5137C46.5169 68.8359 46.5771 69.1875 46.5771 69.5684ZM45.249 69.5391C45.249 69.2721 45.2051 69.0101 45.1172 68.7529C45.0326 68.4958 44.8958 68.2842 44.707 68.1182C44.5182 67.9521 44.2855 67.8691 44.0088 67.8691C43.7451 67.8691 43.5173 67.9505 43.3252 68.1133C43.1364 68.276 42.9964 68.4844 42.9053 68.7383C42.8141 68.9889 42.7686 69.2428 42.7686 69.5C42.7686 69.7767 42.8109 70.0436 42.8955 70.3008C42.9834 70.5579 43.1217 70.7695 43.3105 70.9355C43.4993 71.0983 43.7386 71.1797 44.0283 71.1797C44.2334 71.1797 44.4141 71.1309 44.5703 71.0332C44.7266 70.9323 44.8535 70.8053 44.9512 70.6523C45.0488 70.4961 45.1221 70.3219 45.1709 70.1299C45.223 69.9346 45.249 69.7376 45.249 69.5391ZM48.8184 67.0488L48.8477 67.8008C49.0072 67.5404 49.222 67.3369 49.4922 67.1904C49.7656 67.0439 50.0602 66.9707 50.376 66.9707C50.721 66.9707 51.0059 67.0423 51.2305 67.1855C51.4583 67.3255 51.6406 67.5469 51.7773 67.8496C51.9434 67.5664 52.1631 67.3499 52.4365 67.2002C52.7132 67.0472 53.0176 66.9707 53.3496 66.9707C53.9648 66.9707 54.3799 67.166 54.5947 67.5566C54.8096 67.944 54.917 68.4681 54.917 69.1289V72H53.6377V69.5977V69.4023C53.6377 69.002 53.5905 68.6732 53.4961 68.416C53.4049 68.1589 53.2031 68.0303 52.8906 68.0303C52.2428 68.0303 51.9189 68.5902 51.9189 69.71V72H50.6396V69.4609V69.1094C50.6396 68.8229 50.5843 68.5723 50.4736 68.3574C50.363 68.1393 50.1709 68.0303 49.8975 68.0303C49.5426 68.0303 49.2904 68.1816 49.1406 68.4844C48.9909 68.7839 48.916 69.1289 48.916 69.5195V72H47.6367V68.2598C47.6367 67.8073 47.6237 67.4036 47.5977 67.0488H48.8184ZM60.1514 70.6816L60.1709 71.79C59.6468 72.0179 59.0804 72.1318 58.4717 72.1318C58.0648 72.1318 57.7018 72.0749 57.3828 71.9609C57.0671 71.8438 56.7969 71.6729 56.5723 71.4482C56.3477 71.2204 56.1768 70.9469 56.0596 70.6279C55.9424 70.3057 55.8838 69.9395 55.8838 69.5293C55.8838 69.1517 55.9375 68.805 56.0449 68.4893C56.1556 68.1702 56.3135 67.8952 56.5186 67.6641C56.7236 67.4297 56.9759 67.2474 57.2754 67.1172C57.5781 66.987 57.9199 66.9219 58.3008 66.9219C58.6719 66.9219 58.999 66.9886 59.2822 67.1221C59.5654 67.2555 59.7949 67.4395 59.9707 67.6738C60.1497 67.9082 60.2832 68.18 60.3711 68.4893C60.459 68.7952 60.5029 69.1322 60.5029 69.5C60.5029 69.5651 60.5013 69.6139 60.498 69.6465C60.4948 69.679 60.4915 69.7197 60.4883 69.7686C60.485 69.8174 60.4801 69.8743 60.4736 69.9395H57.1436C57.1761 70.3301 57.3275 70.6344 57.5977 70.8525C57.8711 71.0706 58.2096 71.1797 58.6133 71.1797C59.069 71.1797 59.5817 71.0137 60.1514 70.6816ZM59.2822 69.0508C59.2757 68.8294 59.235 68.626 59.1602 68.4404C59.0885 68.2549 58.9762 68.1051 58.8232 67.9912C58.6735 67.8773 58.4863 67.8203 58.2617 67.8203C58.0306 67.8203 57.832 67.8773 57.666 67.9912C57.5033 68.1019 57.3763 68.25 57.2852 68.4355C57.1973 68.6211 57.1436 68.8262 57.124 69.0508H59.2822Z" fill="#505050"/>
<line x1="4.37114e-08" y1="1.5" x2="391" y2="1.50003" stroke="#505050"/>
<path d="M221 1.5H273" stroke="#EC121F" stroke-width="3" stroke-linecap="round"/>
</svg>
